<?xml version="1.0" encoding="UTF-8"?>
<svg id="Layer_2" xmlns="http://www.w3.org/2000/svg" viewBox="0 0 442.14 375.11">
  <defs>
    <style>
      .cls-1 {
        fill: #fff;
      }

      .cls-2 {
        fill: none;
        stroke: #fff;
        stroke-miterlimit: 10;
        stroke-width: 10px;
      }
    </style>
  </defs>
  <g id="Layer_2-2" data-name="Layer_2">
    <g>
      <polygon class="cls-1" points="83.68 311.57 77.68 311.57 77.68 83.43 172.54 83.43 172.54 0 291.11 0 291.11 308.52 285.11 308.52 285.11 6 178.54 6 178.54 89.43 83.68 89.43 83.68 311.57"/>
      <polygon class="cls-1" points="384.83 308.42 378.83 308.42 378.83 53.43 288.11 53.43 288.11 47.43 384.83 47.43 384.83 308.42"/>
      <polygon class="cls-1" points="178.54 127.02 172.54 134.83 172.54 89.43 178.54 89.43 178.54 127.02"/>
      <rect class="cls-1" x="116.56" y="108.52" width="16.25" height="16.25"/>
      <rect class="cls-1" x="137.89" y="108.52" width="16.25" height="16.25"/>
      <rect class="cls-1" x="116.56" y="130.43" width="16.25" height="16.25"/>
      <rect class="cls-1" x="137.89" y="130.43" width="16.25" height="16.25"/>
      <rect class="cls-1" x="137.89" y="152.33" width="16.25" height="16.25"/>
      <rect class="cls-1" x="326.84" y="64.59" width="16.25" height="16.25"/>
      <rect class="cls-1" x="348.17" y="64.59" width="16.25" height="16.25"/>
      <rect class="cls-1" x="326.84" y="86.49" width="16.25" height="16.25"/>
      <rect class="cls-1" x="348.17" y="86.49" width="16.25" height="16.25"/>
      <rect class="cls-1" x="348.17" y="108.4" width="16.25" height="16.25"/>
      <polygon class="cls-1" points="104.68 316.4 142.02 316.4 242.97 58.49 231.16 58.49 104.68 316.4"/>
      <rect class="cls-1" x="234.18" y="58.49" width="10" height="192"/>
      <circle class="cls-1" cx="240.3" cy="256.3" r="21.05"/>
      <rect class="cls-1" y="306.57" width="83.68" height="10"/>
      <line class="cls-2" x1="175.48" y1="311.57" x2="442.14" y2="311.57"/>
      <line class="cls-2" x1="76.43" y1="340.84" x2="390.71" y2="340.84"/>
      <line class="cls-2" x1="146.14" y1="370.11" x2="334.97" y2="370.11"/>
    </g>
  </g>
</svg>