<?xml version="1.0" encoding="UTF-8"?>
<svg id="Layer_2" xmlns="http://www.w3.org/2000/svg" viewBox="0 0 434.63 305.6">
  <defs>
    <style>
      .cls-1 {
        fill: #fff;
      }
    </style>
  </defs>
  <g id="EC3">
    <g>
      <path class="cls-1" d="M111.69,201.26c0-1.58.01-3.08-.02-4.57,0-.12-.34-.33-.53-.33-1.05-.03-2.11-.02-3.16-.02-2.47,0-4.93-.01-7.4,0-.51,0-.71-.14-.69-.68.04-.88.01-1.76.01-2.73h11.76c.02-.27.05-.45.05-.63,0-2.42-.01-4.85.01-7.27,0-.55-.18-.66-.69-.66-3.48.02-6.96,0-10.44.02-.56,0-.74-.16-.7-.71.05-.65.05-1.31,0-1.96-.05-.64.21-.77.8-.77,3.37.02,6.75.01,10.12.01q.9,0,.9-.89c0-1.75.01-3.5,0-5.25,0-.48.13-.69.64-.67.69.03,1.39.04,2.09,0,.57-.03.72.21.72.75-.02,1.77.01,3.54-.02,5.31,0,.58.17.76.76.76,6.83-.02,13.66-.02,20.49,0,.58,0,.76-.18.75-.76-.03-1.85,0-3.71-.02-5.57,0-.52.16-.73.69-.71.69.03,1.39.03,2.09,0,.51-.02.7.15.7.69-.03,1.88,0,3.75-.02,5.63,0,.57.18.71.72.71,7.06-.02,14.13-.02,21.19,0,.59,0,.76-.2.75-.77-.03-1.83,0-3.67-.02-5.5,0-.59.19-.79.77-.76.63.04,1.27.04,1.9,0,.57-.03.78.14.76.75-.04,1.85,0,3.71-.03,5.57,0,.57.18.72.73.72,3.08-.02,6.16-.01,9.23,0,.83,0,.84.01.84.85,0,.61-.04,1.23.01,1.83.05.6-.2.74-.76.74-3.1-.02-6.2,0-9.3-.02-.56,0-.76.13-.75.73.03,2.38.03,4.77,0,7.15,0,.53.15.68.68.68,3.14-.02,6.28,0,9.42-.02.57,0,.74.17.71.72-.04.67-.03,1.35,0,2.02.03.53-.19.69-.7.69-3.08-.02-6.16,0-9.23,0-.86,0-.86,0-.86.88,0,1.08.04,2.15-.01,3.23-.03.63.14.83.79.82,3.5-.03,7,0,10.5-.03,1.03-.01,1.68.38,2.17,1.28,2.93,5.38,5.91,10.73,8.85,16.1.26.47.41,1.06.41,1.6.03,4.41.02,8.81.02,13.22,0,13.18,0,26.36,0,39.53,0,1.17-.42,1.85-1.33,2.1-.32.09-.67.08-1,.08-15.03,0-30.06,0-45.1,0-16.93,0-33.86,0-50.79,0-.23,0-.46,0-.7,0-.97-.05-1.67-.7-1.73-1.67-.05-.82-.03-1.64-.03-2.47,0-16.76,0-33.53-.01-50.29,0-.93.19-1.75.65-2.58,2.91-5.25,5.79-10.51,8.66-15.78.43-.8,1.03-1.14,1.93-1.13,3.65.02,7.29,0,10.94,0,.25,0,.5,0,.86,0ZM138.98,271.68c15.33,0,30.65,0,45.98,0q.95,0,.95-.97c0-16.04,0-32.09,0-48.13q0-1.02-.99-1.02c-30.63,0-61.26,0-91.89,0q-.98,0-.98.96c0,16.07,0,32.13,0,48.2q0,.97.95.97c15.33,0,30.65,0,45.98,0ZM184.65,218.1c-.09-.22-.15-.37-.23-.51-2.26-4.11-4.53-8.22-6.79-12.34-.21-.39-.48-.51-.9-.51-3.14.01-6.28.02-9.42,0-.6,0-.74.2-.73.77.03,1.83,0,3.67.02,5.5,0,.46-.13.64-.61.62-.69-.03-1.39-.04-2.09,0-.55.03-.74-.15-.73-.71.03-1.81,0-3.63.02-5.44,0-.54-.13-.74-.71-.74-7.1.02-14.21.02-21.31,0-.51,0-.65.16-.64.66.02,1.86,0,3.71.02,5.57,0,.48-.12.69-.64.67-.71-.04-1.43-.03-2.15,0-.53.03-.69-.17-.68-.69.03-1.83,0-3.67.02-5.5,0-.51-.13-.69-.67-.69-6.87.02-13.74.02-20.62,0-.57,0-.72.19-.71.73.03,1.92,0,3.84.02,5.76,0,.47-.16.64-.63.62-.74-.02-1.48-.03-2.21,0-.49.02-.61-.17-.6-.63.02-1.9-.01-3.8.02-5.69.01-.59-.12-.8-.76-.79-3.25.03-6.49.02-9.74,0-.45,0-.71.14-.94.55-2.21,4.07-4.44,8.12-6.67,12.18-.1.18-.17.36-.29.62h91.34ZM151.85,184.39c-3.54,0-7.08,0-10.62,0-.5,0-.7.1-.7.65.03,2.42.03,4.85,0,7.27,0,.5.16.64.65.64,7.1-.01,14.2-.01,21.3,0,.56,0,.72-.17.72-.72-.03-2.36-.03-4.72,0-7.08,0-.63-.21-.77-.8-.76-3.52.02-7.04.01-10.55.01ZM126.15,184.39c-3.46,0-6.91,0-10.37,0-.47,0-.68.1-.67.62.02,2.44.02,4.89,0,7.33,0,.48.18.6.63.6,6.91-.01,13.82-.01,20.73,0,.52,0,.64-.18.63-.66-.02-2.4-.03-4.8,0-7.21,0-.57-.18-.7-.72-.7-3.41.02-6.83.01-10.24.01ZM151.79,201.26c3.58,0,7.17,0,10.75,0,.49,0,.67-.13.66-.64-.03-1.2-.03-2.4,0-3.6.01-.54-.2-.69-.71-.69-7.1.01-14.21.01-21.31,0-.51,0-.65.19-.64.67.03,1.18.04,2.36,0,3.54-.03.61.2.73.76.72,3.5-.02,7-.01,10.5-.01ZM137,201.26c.04-.14.09-.22.09-.3,0-1.39,0-2.78.01-4.17,0-.43-.26-.45-.59-.45-6.91,0-13.82,0-20.72,0-.54,0-.69.21-.68.71.02,1.14.04,2.28,0,3.41-.03.63.15.82.81.82,6.8-.02,13.6-.02,20.41-.02h.68Z"/>
      <path class="cls-1" d="M128.53,262.33c.75-2.68,1.49-5.37,2.24-8.05.06-.02.13-.04.19-.06.95,1.8,1.9,3.59,2.89,5.48-1.76.94-3.47,1.85-5.18,2.76l-.14-.13Z"/>
      <path class="cls-1" d="M168.61,249.12c-.56,1.09-1.06,2.1-1.58,3.1-.05.1-.24.23-.33.2-1.59-.43-3.18-.88-4.88-1.36.2-.25.3-.4.42-.53.88-.93,1.76-1.86,2.66-2.78.13-.13.41-.26.53-.21,1.06.49,2.1,1.02,3.2,1.57Z"/>
      <path class="cls-1" d="M103.13,248.18c.3,1.13.59,2.16.84,3.2.03.14-.05.42-.16.48-1.4.7-2.82,1.38-4.33,2.1-.03-.29-.06-.47-.05-.64.03-1.22.08-2.44.1-3.67,0-.37.15-.57.52-.66,1-.24,1.99-.52,3.07-.81Z"/>
      <path class="cls-1" d="M118.23,263.1c-1.09-.4-2.15-.77-3.2-1.18-1.45-.57-1.17-.17-1.14-1.7.01-.61.07-1.22.09-1.83.01-.42.16-.61.61-.57.88.08,1.77.1,2.65.19.19.02.49.24.52.4.21,1.46.38,2.92.55,4.39,0,.08-.03.16-.07.31Z"/>
      <path class="cls-1" d="M181.41,257.95c-1.37.64-2.63,1.24-3.92,1.8-.13.06-.46-.07-.53-.2-.4-.78-.77-1.58-1.11-2.4-.05-.13.07-.46.2-.52,1.16-.58,2.34-1.13,3.53-1.66.13-.06.46,0,.5.1.45.92.86,1.86,1.31,2.88Z"/>
      <path class="cls-1" d="M133.26,235.04c.44.96.87,1.87,1.26,2.79.04.1-.12.39-.25.46-1.11.54-2.24,1.06-3.37,1.55-.14.06-.5-.08-.57-.23-.39-.74-.73-1.51-1.05-2.29-.05-.13.04-.44.16-.5,1.24-.6,2.5-1.17,3.83-1.78Z"/>
      <path class="cls-1" d="M153.92,265.84c-.54-2.42-1.09-4.83-1.63-7.24.05-.04.11-.07.16-.11.78.52,1.55,1.03,2.33,1.55.59.4,1.2.78,1.77,1.22.14.11.26.47.19.58-.86,1.33-1.75,2.63-2.64,3.93-.02.03-.07.03-.18.08Z"/>
      <path class="cls-1" d="M175.49,232.34c-2.19-.84-4.32-1.65-6.44-2.46,0-.06,0-.12-.01-.17.17-.09.34-.18.51-.26,1.22-.52,2.44-1.02,3.66-1.55.32-.14.56-.16.71.21.53,1.3,1.07,2.61,1.6,3.91.02.05-.01.12-.03.32Z"/>
      <path class="cls-1" d="M103.86,229.95c-2.09.75-4.17,1.5-6.36,2.28.04-.23.03-.37.09-.48.61-1.22,1.22-2.44,1.86-3.65.08-.16.43-.35.54-.29,1.3.63,2.58,1.3,3.87,1.96,0,.06,0,.12,0,.17Z"/>
      <path class="cls-1" d="M108.02,239.35c-.02.17-.04.33-.07.5-.06.42-.21.61-.71.51-1.64-.35-3.29-.66-4.95-.96-.73-.13-.43-.63-.4-1.03.03-.4.17-.65.69-.54,1.66.35,3.34.64,5,.99.2.04.36.26.53.4-.03.04-.07.09-.1.13Z"/>
      <path class="cls-1" d="M163.53,234.71c.38-.61.7-1.17,1.07-1.69.08-.11.34-.1.52-.14.03,0,.07.04.11.06,1.66.9,1.72,1.22.49,2.7-.09.11-.35.2-.44.14-.58-.32-1.13-.69-1.75-1.08Z"/>
      <path class="cls-1" d="M154.78,233.81c-.45-.48-.93-.97-1.38-1.49-.06-.07-.03-.26,0-.38.02-.07.11-.13.16-.19q.75-.81,1.51-.04,1.08,1.09-.3,2.09Z"/>
      <path class="cls-1" d="M170.58,265.99c-.65-.62-1.18-1.12-1.81-1.72.42-.35.81-.68,1.19-1,.51.5,1.01.99,1.52,1.49-.29.41-.59.81-.89,1.23Z"/>
      <path class="cls-1" d="M118.56,237.61c-.42-.43-.81-.85-1.22-1.24-.29-.27-.22-.48.03-.74.72-.74.71-.75,1.44-.01.01.01.03.03.05.04,1.01,1.01,1,1.09-.3,1.95Z"/>
      <path class="cls-1" d="M102.59,267.6c.32-.23.63-.49.97-.68.13-.07.4-.03.52.06.28.21.51.49.77.74.59.6.57.57-.02,1.2-.41.44-.69.41-1.06-.03-.29-.35-.64-.66-.95-1-.03-.03-.03-.07-.05-.11-.06-.06-.12-.12-.18-.19Z"/>
    </g>
    <g>
      <polygon class="cls-1" points="301.99 214.05 253.06 214.05 253.06 210.05 297.99 210.05 297.99 186.19 301.99 186.19 301.99 214.05"/>
      <path class="cls-1" d="M239.65,214.05h-24.58c-1.1,0-2-.9-2-2v-62.85c0-1.1.9-2,2-2h84.92c1.1,0,2,.9,2,2v26.23h-4v-24.23h-80.92v58.85h22.58v4Z"/>
      <path class="cls-1" d="M332.11,245.48h-84.92c-1.1,0-2-.9-2-2v-62.85c0-1.1.9-2,2-2h84.92c1.1,0,2,.9,2,2v62.85c0,1.1-.9,2-2,2ZM249.19,241.48h80.92v-58.85h-80.92v58.85Z"/>
      <g>
        <line class="cls-1" x1="225.19" y1="171.48" x2="239.59" y2="157.08"/>
        <path class="cls-1" d="M225.19,172.48c-.26,0-.51-.1-.71-.29-.39-.39-.39-1.02,0-1.41l14.4-14.4c.39-.39,1.02-.39,1.41,0s.39,1.02,0,1.41l-14.4,14.4c-.2.2-.45.29-.71.29Z"/>
      </g>
      <g>
        <line class="cls-1" x1="228.53" y1="180.63" x2="248.73" y2="160.43"/>
        <path class="cls-1" d="M228.53,181.63c-.26,0-.51-.1-.71-.29-.39-.39-.39-1.02,0-1.41l20.2-20.2c.39-.39,1.02-.39,1.41,0s.39,1.02,0,1.41l-20.2,20.2c-.2.2-.45.29-.71.29Z"/>
      </g>
      <g>
        <line class="cls-1" x1="312.06" y1="232.5" x2="322.21" y2="222.35"/>
        <path class="cls-1" d="M312.06,233.5c-.26,0-.51-.1-.71-.29-.39-.39-.39-1.02,0-1.41l10.15-10.15c.39-.39,1.02-.39,1.41,0s.39,1.02,0,1.41l-10.15,10.15c-.2.2-.45.29-.71.29Z"/>
      </g>
      <g>
        <line class="cls-1" x1="300.99" y1="231.88" x2="321.19" y2="211.68"/>
        <path class="cls-1" d="M300.99,232.88c-.26,0-.51-.1-.71-.29-.39-.39-.39-1.02,0-1.41l20.2-20.2c.39-.39,1.02-.39,1.41,0s.39,1.02,0,1.41l-20.2,20.2c-.2.2-.45.29-.71.29Z"/>
      </g>
    </g>
    <path class="cls-1" d="M203.31,305.6c-39.32,0-78.92-.08-118.14-.37-23.14-.17-44.24-9.25-59.39-25.55-14.93-16.06-22.33-37.3-20.84-59.8,1.42-21.55,12.01-41.94,29.07-55.93,16.19-13.29,36.89-19.72,57.22-17.88,2.6-22.44,9.69-41.03,21.12-55.31,12.98-16.22,31.54-26.9,55.16-31.73,41.32-8.45,76.12,7.21,100.87,45.3,24.85-6.71,47.78-2.87,68.19,11.41,20.29,14.21,31.6,34.31,33.66,59.82,2.44.11,4.95.23,7.47.52,32.8,3.73,57.81,32.92,56.92,66.46-.87,33.09-27.38,60.62-60.34,62.67-2.42.15-4.63.22-6.75.23-26.92,0-53.85.04-80.77.09-27.5.04-55.39.09-83.43.09ZM84.34,155.74c-15.77,0-31.43,5.6-44,15.92-14.92,12.25-24.19,30.06-25.43,48.86-1.3,19.73,5.16,38.32,18.19,52.34,13.26,14.27,31.78,22.21,52.14,22.36,67.15.5,135.44.39,201.48.29,26.93-.04,53.86-.08,80.79-.09,1.91,0,3.91-.07,6.13-.21,27.84-1.73,50.23-24.99,50.97-52.95.75-28.4-20.36-53.11-48.05-56.26-2.43-.28-4.91-.38-7.53-.5-1.27-.06-2.54-.11-3.82-.19l-4.54-.27-.17-4.54c-.9-24.4-10.88-43.44-29.67-56.6-18.76-13.13-40.02-16.15-63.2-8.98l-3.71,1.15-2.03-3.3c-22.78-37.06-53.86-51.85-92.39-43.97-41.75,8.54-64.91,36.5-68.82,83.12l-.42,4.94-5.4-.4c-.54-.03-1.22-.07-1.95-.17-2.85-.37-5.71-.56-8.56-.56Z"/>
    <path class="cls-1" d="M34.06,173.96h-11.6v-67.27H0l37.42-54.34,37.42,54.34h-22.46v54.16l-1.33.7c-5.9,3.12-11.38,7.06-16.28,11.71l-.72.69ZM27.46,168.96h4.62c4.67-4.32,9.81-8.05,15.32-11.1v-56.17h17.94l-27.91-40.53-27.91,40.53h17.94v67.27Z"/>
    <path class="cls-1" d="M97.98,154.19l-2.97-.22c-.53-.03-1.15-.07-1.77-.15-3.81-.5-7.72-.68-11.61-.54l-2.59.1V54.34h-22.46L94,0l37.42,54.34h-22.46v55.65l-.25.52c-5.67,11.63-9.21,25.49-10.53,41.21l-.21,2.47ZM84.23,148.24c3.09,0,6.17.19,9.21.57,1.5-15.09,5.04-28.52,10.53-39.97v-59.5h17.94l-27.91-40.53-27.91,40.53h17.94v98.9h.2Z"/>
  </g>
</svg>