<?xml version="1.0" encoding="UTF-8"?>
<svg id="Layer_2" xmlns="http://www.w3.org/2000/svg" viewBox="0 0 456.85 353.67">
  <defs>
    <style>
      .cls-1 {
        fill: #fff;
      }
    </style>
  </defs>
  <g id="EC3">
    <path class="cls-1" d="M225.13,128.99c-20.38,0-40.91-.04-61.25-.19-12-.09-22.93-4.79-30.79-13.25-7.74-8.33-11.57-19.34-10.81-31,.74-11.17,6.23-21.74,15.07-29,8.39-6.89,19.12-10.23,29.66-9.27,1.35-11.63,5.02-21.27,10.95-28.67,6.73-8.41,16.35-13.94,28.59-16.45,21.42-4.38,39.46,3.74,52.29,23.49,12.88-3.48,24.77-1.49,35.35,5.92,10.52,7.36,16.38,17.79,17.45,31.01,1.27.06,2.57.12,3.87.27,17.01,1.93,29.97,17.06,29.51,34.45-.45,17.15-14.19,31.42-31.28,32.49-1.26.08-2.4.12-3.5.12-13.96,0-27.92.02-41.87.04-14.26.02-28.72.04-43.25.04ZM163.46,51.3c-8.17,0-16.29,2.9-22.81,8.25-7.74,6.35-12.54,15.58-13.18,25.33-.67,10.23,2.68,19.86,9.43,27.13,6.88,7.4,16.47,11.51,27.03,11.59,34.81.26,70.21.2,104.45.15,13.96-.02,27.92-.04,41.88-.04.99,0,2.03-.04,3.18-.11,14.43-.9,26.04-12.96,26.42-27.45.39-14.72-10.55-27.53-24.91-29.17-1.26-.14-2.54-.2-3.9-.26-.66-.03-1.32-.06-1.98-.1l-2.35-.14-.09-2.35c-.47-12.65-5.64-22.52-15.38-29.34-9.72-6.81-20.75-8.37-32.76-4.66l-1.92.59-1.05-1.71c-11.81-19.21-27.92-26.88-47.89-22.8-21.64,4.43-33.65,18.92-35.68,43.09l-.22,2.56-2.8-.21c-.28-.02-.63-.04-1.01-.09-1.48-.19-2.96-.29-4.44-.29Z"/>
    <rect class="cls-1" y="285.14" width="456.85" height="10"/>
    <rect class="cls-1" x="91.13" y="314.4" width="314.29" height="10"/>
    <rect class="cls-1" x="160.85" y="343.67" width="188.83" height="10"/>
    <g>
      <path class="cls-1" d="M206.98,98.35c-3.09,0-5.86-.7-8.31-2.11s-4.38-3.45-5.79-6.12-2.12-5.9-2.12-9.68.71-7.04,2.13-9.71,3.36-4.72,5.81-6.13,5.21-2.11,8.27-2.11c1.98,0,3.83.28,5.54.83s3.23,1.36,4.56,2.43,2.41,2.36,3.26,3.9,1.4,3.29,1.66,5.26h-7.24c-.16-.97-.46-1.82-.9-2.57s-1-1.38-1.66-1.9-1.43-.92-2.29-1.2-1.79-.41-2.79-.41c-1.81,0-3.4.45-4.77,1.36s-2.43,2.22-3.19,3.95-1.14,3.82-1.14,6.29.38,4.63,1.15,6.35,1.83,3.02,3.19,3.89,2.94,1.31,4.73,1.31c1,0,1.93-.14,2.78-.41s1.62-.67,2.3-1.2,1.24-1.16,1.69-1.91.75-1.6.93-2.55h7.24c-.19,1.62-.67,3.18-1.44,4.66s-1.8,2.81-3.08,3.98-2.8,2.09-4.57,2.77-3.75,1.01-5.95,1.01Z"/>
      <path class="cls-1" d="M242.56,98.35c-3.08,0-5.85-.7-8.31-2.11s-4.41-3.45-5.84-6.12-2.14-5.9-2.14-9.68.71-7.04,2.14-9.71,3.38-4.72,5.84-6.13,5.23-2.11,8.31-2.11,5.87.7,8.32,2.11,4.39,3.45,5.82,6.13,2.14,5.92,2.14,9.71-.71,7.01-2.14,9.68-3.37,4.71-5.82,6.12-5.23,2.11-8.32,2.11ZM242.56,92c1.81,0,3.39-.44,4.75-1.32s2.4-2.19,3.15-3.91,1.12-3.83,1.12-6.32-.38-4.64-1.12-6.36-1.8-3.03-3.15-3.91-2.93-1.32-4.75-1.32-3.38.45-4.73,1.34-2.41,2.2-3.16,3.93-1.12,3.84-1.12,6.34.38,4.59,1.12,6.3,1.8,3.02,3.16,3.91,2.94,1.34,4.73,1.34Z"/>
      <path class="cls-1" d="M262.75,113.87v-3.01l7.21-6.76c.62-.6,1.14-1.15,1.56-1.63.42-.49.75-.97.97-1.43.22-.47.33-.98.33-1.52,0-.61-.14-1.13-.41-1.57-.27-.44-.65-.77-1.12-1.01s-1.02-.36-1.63-.36-1.18.13-1.65.38-.84.62-1.09,1.09c-.26.47-.38,1.04-.38,1.71h-3.99c0-1.32.3-2.47.91-3.45.61-.98,1.45-1.74,2.52-2.27,1.08-.53,2.31-.8,3.72-.8s2.7.26,3.77.77c1.07.51,1.91,1.22,2.51,2.12s.9,1.94.9,3.12c0,.76-.15,1.5-.44,2.24-.3.74-.82,1.56-1.58,2.48s-1.84,2.01-3.23,3.29l-3.07,3.03v.15h8.61v3.43h-14.4Z"/>
    </g>
  </g>
  <g id="Layer_4">
    <path class="cls-1" d="M60.85,288.57h-19.33v-20.91c-3.87,1.15-11.34,2.86-18.96,1.97-10.86-1.28-16.5-5.73-16.73-5.92l-2.82-2.27,3.42-1.18c.08-.03,7.84-2.74,11.75-6.55,2.76-2.68,5.19-6.09,6.77-8.51-1.66.02-3.71,0-5.83-.08-5.53-.22-9.57-4.09-9.74-4.26l-2.35-2.29,3.11-1.04c.06-.02,5.99-2.03,10.23-5.6,2.85-2.39,4.98-4.9,6.3-6.65-1.13-.26-2.55-.58-4.21-.94-4.34-.94-5.73-1.78-6.13-2.1l-2-1.6,2.04-1.55c.14-.1,13.79-10.54,19.77-17.93,6.3-7.8,13.11-25.41,13.18-25.59l1.87-4.86,1.87,4.86c.07.18,6.87,17.79,13.18,25.59,5.98,7.4,19.63,17.83,19.77,17.93l2.04,1.55-2,1.6c-.39.32-1.78,1.15-6.13,2.1-1.65.36-3.08.68-4.21.94,1.32,1.75,3.45,4.26,6.3,6.65,4.25,3.57,10.17,5.58,10.23,5.6l3.11,1.04-2.35,2.29c-.17.17-4.21,4.04-9.74,4.26-2.12.08-4.18.1-5.83.08,1.58,2.42,4.01,5.83,6.77,8.51h0c3.92,3.81,11.68,6.52,11.75,6.55l3.42,1.18-2.82,2.27c-.23.19-5.87,4.63-16.73,5.92-7.62.9-15.09-.82-18.96-1.97v20.91ZM45.51,284.57h11.33v-22.58l2.72,1.04c.1.04,10.01,3.78,19.78,2.63,5.15-.61,8.98-2,11.44-3.18-2.88-1.3-6.75-3.35-9.38-5.9h0c-5.22-5.07-9.18-12.19-9.35-12.49l-1.72-3.11,3.56.15s4.53.18,9.21,0c1.64-.06,3.14-.61,4.33-1.23-2.32-1.06-5.39-2.7-8-4.9-5.64-4.73-8.64-9.77-8.77-9.98l-1.38-2.33,2.63-.63s2.82-.68,7.14-1.62c.63-.14,1.18-.27,1.66-.39-4.46-3.56-13-10.67-17.61-16.37-4.67-5.78-9.4-16.11-11.93-22.08-2.53,5.97-7.26,16.3-11.93,22.08-4.61,5.7-13.15,12.81-17.61,16.37.48.12,1.03.26,1.66.39,4.33.94,7.12,1.61,7.14,1.62l2.63.63-1.37,2.33c-.12.21-3.13,5.25-8.77,9.98-2.61,2.2-5.69,3.84-8.01,4.9,1.19.62,2.69,1.16,4.34,1.23,4.68.18,9.17,0,9.21,0l3.56-.15-1.72,3.11c-.17.3-4.13,7.42-9.35,12.49-2.62,2.55-6.5,4.6-9.38,5.9,2.46,1.17,6.29,2.57,11.44,3.18,9.81,1.16,19.68-2.59,19.78-2.62l2.72-1.05v22.59Z"/>
    <g>
      <path class="cls-1" d="M156.57,285.13c-6.82,0-12.36-5.55-12.36-12.36s5.55-12.36,12.36-12.36,12.36,5.55,12.36,12.36-5.54,12.36-12.36,12.36ZM156.57,264.41c-4.61,0-8.36,3.75-8.36,8.36s3.75,8.36,8.36,8.36,8.36-3.75,8.36-8.36-3.75-8.36-8.36-8.36Z"/>
      <path class="cls-1" d="M267.73,285.13c-6.82,0-12.36-5.55-12.36-12.36s5.54-12.36,12.36-12.36,12.36,5.55,12.36,12.36-5.55,12.36-12.36,12.36ZM267.73,264.41c-4.61,0-8.36,3.75-8.36,8.36s3.75,8.36,8.36,8.36,8.36-3.75,8.36-8.36-3.75-8.36-8.36-8.36Z"/>
      <path class="cls-1" d="M139.66,272.24l-2.08-.47c-6.27-1.42-10.81-7.16-10.81-13.66v-43.05c0-7.72,6.19-14,13.8-14h77.33c7.61,0,13.8,6.28,13.8,14v43.05c0,7.72-6.19,14-13.8,14h-45.4l-.24-1.72c-1.15-8.13-8.09-14.26-16.15-14.26s-14.83,5.89-16.11,14l-.33,2.11ZM175.89,268.11h42c5.4,0,9.8-4.49,9.8-10v-43.05c0-5.51-4.39-10-9.8-10h-77.33c-5.4,0-9.8,4.49-9.8,10v43.05c0,3.95,2.33,7.5,5.77,9.1,2.41-8.87,10.31-15.09,19.57-15.09s17.68,6.76,19.79,15.98Z"/>
      <path class="cls-1" d="M285.49,236.54h-29.15v-24.97h11.4c9.79,0,17.76,7.97,17.76,17.76v7.22ZM260.34,232.54h21.15v-3.22c0-7.58-6.17-13.76-13.76-13.76h-7.4v16.97Z"/>
      <path class="cls-1" d="M251.02,272.13l-1.77-.04c-7.55-.16-13.7-6.44-13.7-13.99v-32.6c0-7.72,6.28-14,14-14h3.51v28.18h42.36v18.43c0,5.65-3.39,10.72-8.62,12.92l-2.26.95-.47-2.41c-1.52-7.79-8.39-13.44-16.33-13.44s-15.29,6.13-16.46,14.26l-.25,1.75ZM249.07,215.51c-5.29.26-9.51,4.64-9.51,9.99v32.6c0,4.83,3.52,8.92,8.13,9.81,2.21-9.13,10.51-15.8,20.05-15.8,8.94,0,16.79,5.77,19.57,14.06,2.56-1.86,4.12-4.84,4.12-8.08v-14.43h-42.36v-28.17Z"/>
    </g>
    <path class="cls-1" d="M448.89,289.46h-137.84v-13.14h12.44v-64.94l26.41-23.18v19.86l24-19.67v19.86l25.9-19.67v21.7h5.97v-24.57h2.03v-28.71h23.05l.03,28.71h2v24.57h3.3v29.05h2.79v36.98h9.91v13.14ZM315.05,285.46h129.84v-5.14h-9.91v-36.98h-2.79v-29.05h-3.3l-.03-24.57h-2v-28.71h-15.05v28.71h-2.03v24.57h-13.97v-17.64l-25.9,19.67v-19.47l-24,19.67v-19.48l-18.41,16.16v67.13h-12.44v5.14Z"/>
    <path class="cls-1" d="M344.97,240.96h-10.76v-11.52h10.76v11.52ZM336.21,238.96h6.76v-7.52h-6.76v7.52Z"/>
    <path class="cls-1" d="M344.97,260.2h-10.76v-11.52h10.76v11.52ZM336.21,258.2h6.76v-7.52h-6.76v7.52Z"/>
    <path class="cls-1" d="M369.35,240.96h-10.76v-11.52h10.76v11.52ZM360.59,238.96h6.76v-7.52h-6.76v7.52Z"/>
    <path class="cls-1" d="M369.35,260.2h-10.76v-11.52h10.76v11.52ZM360.59,258.2h6.76v-7.52h-6.76v7.52Z"/>
    <path class="cls-1" d="M394.68,240.96h-10.76v-11.52h10.76v11.52ZM385.92,238.96h6.76v-7.52h-6.76v7.52Z"/>
    <path class="cls-1" d="M394.68,260.2h-10.76v-11.52h10.76v11.52ZM385.92,258.2h6.76v-7.52h-6.76v7.52Z"/>
  </g>
</svg>